<svg width="44" height="44" viewBox="0 0 44 44" fill="none" xmlns="http://www.w3.org/2000/svg">
<g filter="url(#filter0_ii_64_7)">
<rect width="44" height="44" rx="9.45312" fill="url(#paint0_linear_64_7)"/>
<rect width="44" height="44" rx="9.45312" fill="url(#paint1_linear_64_7)" fill-opacity="0.2" style="mix-blend-mode:soft-light"/>
</g>
<g filter="url(#filter1_dd_64_7)">
<g filter="url(#filter2_i_64_7)">
<path fill-rule="evenodd" clip-rule="evenodd" d="M24.1659 16.9052C23.421 18.2295 23.4233 19.8471 24.1719 21.1693L31.647 34.3713C32.2788 35.4872 33.6991 35.8742 34.8097 35.233C35.91 34.5977 36.2901 33.1927 35.6601 32.0894L33.9059 29.0174H36.2624C37.5395 29.0174 38.5749 27.982 38.5749 26.7049C38.5749 25.4277 37.5395 24.3924 36.2624 24.3924H31.2649L26.0438 15.2488C25.8339 14.8812 25.3033 14.8829 25.0958 15.2519L24.1659 16.9052Z" fill="white"/>
</g>
<g filter="url(#filter3_i_64_7)">
<path d="M26.1781 7.7653C25.0721 7.12669 23.6579 7.50566 23.0194 8.61173L22.5558 9.41435L22.1482 8.70814C21.5097 7.60206 20.0954 7.22309 18.9891 7.8617C17.8831 8.5003 17.5043 9.91456 18.1428 11.0206L19.8772 14.0247L19.9026 14.01L12.6131 26.6359L16.6185 28.9484L27.0247 10.9242C27.6633 9.81816 27.2844 8.4039 26.1781 7.7653Z" fill="white"/>
</g>
<g filter="url(#filter4_i_64_7)">
<path d="M24.0176 24.3921C24.7962 24.3921 25.5142 24.812 25.8958 25.4906L27.4554 28.2631C27.6451 28.6004 27.4014 29.0171 27.0145 29.0171L9.09045 29.0171C7.8133 29.0171 6.77795 27.9817 6.77795 26.7046C6.77795 25.4274 7.8133 24.3921 9.09045 24.3921H24.0176Z" fill="white"/>
</g>
<g filter="url(#filter5_i_64_7)">
<path d="M15.1608 30.8902L13.1454 34.3714C12.5013 35.484 11.0795 35.8675 9.96331 35.2296C8.84266 34.5893 8.45329 33.1617 9.09363 32.041L10.1178 30.2486C10.2026 30.1002 10.3187 29.9707 10.4692 29.89C11.927 29.1082 14.6119 29.2438 15.1608 30.8902Z" fill="white"/>
</g>
</g>
<defs>
<filter id="filter0_ii_64_7" x="-0.34375" y="-0.34375" width="44.6875" height="44.6875" filterUnits="userSpaceOnUse" color-interpolation-filters="sRGB">
<feFlood flood-opacity="0" result="BackgroundImageFix"/>
<feBlend mode="normal" in="SourceGraphic" in2="BackgroundImageFix" result="shape"/>
<feColorMatrix in="SourceAlpha" type="matrix" values="0 0 0 0 0 0 0 0 0 0 0 0 0 0 0 0 0 0 127 0" result="hardAlpha"/>
<feOffset dx="0.34375" dy="0.34375"/>
<feGaussianBlur stdDeviation="0.171875"/>
<feComposite in2="hardAlpha" operator="arithmetic" k2="-1" k3="1"/>
<feColorMatrix type="matrix" values="0 0 0 0 1 0 0 0 0 1 0 0 0 0 1 0 0 0 0.2 0"/>
<feBlend mode="normal" in2="shape" result="effect1_innerShadow_64_7"/>
<feColorMatrix in="SourceAlpha" type="matrix" values="0 0 0 0 0 0 0 0 0 0 0 0 0 0 0 0 0 0 127 0" result="hardAlpha"/>
<feOffset dx="-0.34375" dy="-0.34375"/>
<feGaussianBlur stdDeviation="0.171875"/>
<feComposite in2="hardAlpha" operator="arithmetic" k2="-1" k3="1"/>
<feColorMatrix type="matrix" values="0 0 0 0 0 0 0 0 0 0 0 0 0 0 0 0 0 0 0.05 0"/>
<feBlend mode="normal" in2="effect1_innerShadow_64_7" result="effect2_innerShadow_64_7"/>
</filter>
<filter id="filter1_dd_64_7" x="2.9967" y="6.5957" width="39.3594" height="35.6501" filterUnits="userSpaceOnUse" color-interpolation-filters="sRGB">
<feFlood flood-opacity="0" result="BackgroundImageFix"/>
<feColorMatrix in="SourceAlpha" type="matrix" values="0 0 0 0 0 0 0 0 0 0 0 0 0 0 0 0 0 0 127 0" result="hardAlpha"/>
<feOffset dy="0.859375"/>
<feGaussianBlur stdDeviation="0.6875"/>
<feColorMatrix type="matrix" values="0 0 0 0 0 0 0 0 0 0 0 0 0 0 0 0 0 0 0.4 0"/>
<feBlend mode="normal" in2="BackgroundImageFix" result="effect1_dropShadow_64_7"/>
<feColorMatrix in="SourceAlpha" type="matrix" values="0 0 0 0 0 0 0 0 0 0 0 0 0 0 0 0 0 0 127 0" result="hardAlpha"/>
<feOffset dy="2.92188"/>
<feGaussianBlur stdDeviation="1.89062"/>
<feColorMatrix type="matrix" values="0 0 0 0 0 0 0 0 0 0 0 0 0 0 0 0 0 0 0.2 0"/>
<feBlend mode="normal" in2="effect1_dropShadow_64_7" result="effect2_dropShadow_64_7"/>
<feBlend mode="normal" in="SourceGraphic" in2="effect2_dropShadow_64_7" result="shape"/>
</filter>
<filter id="filter2_i_64_7" x="23.6088" y="13.5991" width="14.966" height="21.9436" filterUnits="userSpaceOnUse" color-interpolation-filters="sRGB">
<feFlood flood-opacity="0" result="BackgroundImageFix"/>
<feBlend mode="normal" in="SourceGraphic" in2="BackgroundImageFix" result="shape"/>
<feColorMatrix in="SourceAlpha" type="matrix" values="0 0 0 0 0 0 0 0 0 0 0 0 0 0 0 0 0 0 127 0" result="hardAlpha"/>
<feOffset dy="-1.375"/>
<feGaussianBlur stdDeviation="0.859375"/>
<feComposite in2="hardAlpha" operator="arithmetic" k2="-1" k3="1"/>
<feColorMatrix type="matrix" values="0 0 0 0 0 0 0 0 0 0 0 0 0 0 0 0 0 0 0.25 0"/>
<feBlend mode="normal" in2="shape" result="effect1_innerShadow_64_7"/>
</filter>
<filter id="filter3_i_64_7" x="12.6131" y="6.08008" width="14.7218" height="22.8684" filterUnits="userSpaceOnUse" color-interpolation-filters="sRGB">
<feFlood flood-opacity="0" result="BackgroundImageFix"/>
<feBlend mode="normal" in="SourceGraphic" in2="BackgroundImageFix" result="shape"/>
<feColorMatrix in="SourceAlpha" type="matrix" values="0 0 0 0 0 0 0 0 0 0 0 0 0 0 0 0 0 0 127 0" result="hardAlpha"/>
<feOffset dy="-1.375"/>
<feGaussianBlur stdDeviation="0.859375"/>
<feComposite in2="hardAlpha" operator="arithmetic" k2="-1" k3="1"/>
<feColorMatrix type="matrix" values="0 0 0 0 0 0 0 0 0 0 0 0 0 0 0 0 0 0 0.25 0"/>
<feBlend mode="normal" in2="shape" result="effect1_innerShadow_64_7"/>
</filter>
<filter id="filter4_i_64_7" x="6.77795" y="23.0171" width="20.7432" height="6" filterUnits="userSpaceOnUse" color-interpolation-filters="sRGB">
<feFlood flood-opacity="0" result="BackgroundImageFix"/>
<feBlend mode="normal" in="SourceGraphic" in2="BackgroundImageFix" result="shape"/>
<feColorMatrix in="SourceAlpha" type="matrix" values="0 0 0 0 0 0 0 0 0 0 0 0 0 0 0 0 0 0 127 0" result="hardAlpha"/>
<feOffset dy="-1.375"/>
<feGaussianBlur stdDeviation="0.859375"/>
<feComposite in2="hardAlpha" operator="arithmetic" k2="-1" k3="1"/>
<feColorMatrix type="matrix" values="0 0 0 0 0 0 0 0 0 0 0 0 0 0 0 0 0 0 0.25 0"/>
<feBlend mode="normal" in2="shape" result="effect1_innerShadow_64_7"/>
</filter>
<filter id="filter5_i_64_7" x="8.78534" y="28.0537" width="6.37543" height="7.48413" filterUnits="userSpaceOnUse" color-interpolation-filters="sRGB">
<feFlood flood-opacity="0" result="BackgroundImageFix"/>
<feBlend mode="normal" in="SourceGraphic" in2="BackgroundImageFix" result="shape"/>
<feColorMatrix in="SourceAlpha" type="matrix" values="0 0 0 0 0 0 0 0 0 0 0 0 0 0 0 0 0 0 127 0" result="hardAlpha"/>
<feOffset dy="-1.375"/>
<feGaussianBlur stdDeviation="0.859375"/>
<feComposite in2="hardAlpha" operator="arithmetic" k2="-1" k3="1"/>
<feColorMatrix type="matrix" values="0 0 0 0 0 0 0 0 0 0 0 0 0 0 0 0 0 0 0.25 0"/>
<feBlend mode="normal" in2="shape" result="effect1_innerShadow_64_7"/>
</filter>
<linearGradient id="paint0_linear_64_7" x1="22" y1="0" x2="22" y2="44" gradientUnits="userSpaceOnUse">
<stop stop-color="#1BB3F3"/>
<stop offset="1" stop-color="#186CE6"/>
</linearGradient>
<linearGradient id="paint1_linear_64_7" x1="22" y1="0" x2="22" y2="44" gradientUnits="userSpaceOnUse">
<stop offset="0.328125" stop-color="white"/>
<stop offset="1" stop-opacity="0.1"/>
</linearGradient>
</defs>
</svg>
