<svg width="44" height="45" viewBox="0 0 44 45" fill="none" xmlns="http://www.w3.org/2000/svg">
<path d="M0.883632 1.03277C0.323918 1.5588 0 2.37778 0 3.4384V41.2699C0 42.3305 0.323918 43.1495 0.883632 43.6755L1.02178 43.791L24.6346 22.6001V22.0997L1.02178 0.908747L0.883632 1.03277Z" fill="url(#paint0_linear_64_28)"/>
<path d="M32.4967 29.6672L24.6345 22.6V22.0997L32.5062 15.0324L32.6824 15.1244L42.0046 19.8865C44.6651 21.2379 44.6651 23.4618 42.0046 24.8218L32.6824 29.5753L32.4967 29.6672Z" fill="url(#paint1_linear_64_28)"/>
<path d="M32.6825 29.5753L24.6345 22.3499L0.883606 43.6755C1.76724 44.5095 3.2082 44.61 4.84686 43.776L32.6825 29.5753Z" fill="url(#paint2_linear_64_28)"/>
<path d="M32.6825 15.1244L4.84686 0.923695C3.2082 0.0982951 1.76724 0.198795 0.883606 1.03275L24.6345 22.3499L32.6825 15.1244Z" fill="url(#paint3_linear_64_28)"/>
<defs>
<linearGradient id="paint0_linear_64_28" x1="22.538" y1="41.6639" x2="-6.00511" y2="9.87149" gradientUnits="userSpaceOnUse">
<stop stop-color="#00A0FF"/>
<stop offset="0.0066" stop-color="#00A1FF"/>
<stop offset="0.2601" stop-color="#00BEFF"/>
<stop offset="0.5122" stop-color="#00D2FF"/>
<stop offset="0.7604" stop-color="#00DFFF"/>
<stop offset="1" stop-color="#00E3FF"/>
</linearGradient>
<linearGradient id="paint1_linear_64_28" x1="45.469" y1="22.3474" x2="-0.636029" y2="22.3474" gradientUnits="userSpaceOnUse">
<stop stop-color="#FFE000"/>
<stop offset="0.4087" stop-color="#FFBD00"/>
<stop offset="0.7754" stop-color="#FFA500"/>
<stop offset="1" stop-color="#FF9C00"/>
</linearGradient>
<linearGradient id="paint2_linear_64_28" x1="28.3063" y1="18.422" x2="-10.4006" y2="-24.6911" gradientUnits="userSpaceOnUse">
<stop stop-color="#FF3A44"/>
<stop offset="1" stop-color="#C31162"/>
</linearGradient>
<linearGradient id="paint3_linear_64_28" x1="-5.095" y1="56.2619" x2="12.1893" y2="37.0101" gradientUnits="userSpaceOnUse">
<stop stop-color="#32A071"/>
<stop offset="0.0685" stop-color="#2DA771"/>
<stop offset="0.4762" stop-color="#15CF74"/>
<stop offset="0.8009" stop-color="#06E775"/>
<stop offset="1" stop-color="#00F076"/>
</linearGradient>
</defs>
</svg>
