<svg width="60" height="60" viewBox="0 0 60 60" fill="none" xmlns="http://www.w3.org/2000/svg">
<rect width="60" height="60" rx="13.6364" fill="url(#paint0_radial_40_2)"/>
<g filter="url(#filter0_d_40_2)">
<path d="M38.9517 48.9H18.6511C18.2914 48.9 17.9999 48.6085 17.9999 48.2488V31.815C17.9999 31.2672 18.635 30.9642 19.0608 31.3089L39.3614 47.7427C39.8383 48.1288 39.5653 48.9 38.9517 48.9Z" fill="white"/>
</g>
<g filter="url(#filter1_d_40_2)">
<path d="M19.0772 12.9325L38.5982 29.8266C38.8969 30.085 38.8985 30.5477 38.6018 30.8083L19.0807 47.9508C18.6599 48.3204 17.9999 48.0215 17.9999 47.4615V13.4248C17.9999 12.867 18.6554 12.5674 19.0772 12.9325Z" fill="white"/>
</g>
<g filter="url(#filter2_d_40_2)">
<path d="M19.0852 12.0001H37.4825H38.6973C39.3091 12.0001 39.5832 12.7673 39.11 13.155L38.1703 13.9249L19.773 28.9974L19.0637 29.5785C18.6386 29.9267 17.9999 29.6243 17.9999 29.0748V28.1579V13.0854V12.6513C17.9999 12.2917 18.2914 12.0001 18.6511 12.0001H19.0852Z" fill="white"/>
</g>
<defs>
<filter id="filter0_d_40_2" x="17.9999" y="31.1626" width="24.8601" height="20.9933" filterUnits="userSpaceOnUse" color-interpolation-filters="sRGB">
<feFlood flood-opacity="0" result="BackgroundImageFix"/>
<feColorMatrix in="SourceAlpha" type="matrix" values="0 0 0 0 0 0 0 0 0 0 0 0 0 0 0 0 0 0 127 0" result="hardAlpha"/>
<feOffset dx="1.62794" dy="1.62794"/>
<feGaussianBlur stdDeviation="0.813968"/>
<feComposite in2="hardAlpha" operator="out"/>
<feColorMatrix type="matrix" values="0 0 0 0 0 0 0 0 0 0 0 0 0 0 0 0 0 0 0.2 0"/>
<feBlend mode="normal" in2="BackgroundImageFix" result="effect1_dropShadow_40_2"/>
<feBlend mode="normal" in="SourceGraphic" in2="effect1_dropShadow_40_2" result="shape"/>
</filter>
<filter id="filter1_d_40_2" x="16.3719" y="12.7725" width="24.0792" height="38.5974" filterUnits="userSpaceOnUse" color-interpolation-filters="sRGB">
<feFlood flood-opacity="0" result="BackgroundImageFix"/>
<feColorMatrix in="SourceAlpha" type="matrix" values="0 0 0 0 0 0 0 0 0 0 0 0 0 0 0 0 0 0 127 0" result="hardAlpha"/>
<feOffset dy="1.62794"/>
<feGaussianBlur stdDeviation="0.813968"/>
<feComposite in2="hardAlpha" operator="out"/>
<feColorMatrix type="matrix" values="0 0 0 0 0 0 0 0 0 0 0 0 0 0 0 0 0 0 0.2 0"/>
<feBlend mode="normal" in2="BackgroundImageFix" result="effect1_dropShadow_40_2"/>
<feBlend mode="normal" in="SourceGraphic" in2="effect1_dropShadow_40_2" result="shape"/>
</filter>
<filter id="filter2_d_40_2" x="16.3719" y="12.0001" width="24.6058" height="20.9829" filterUnits="userSpaceOnUse" color-interpolation-filters="sRGB">
<feFlood flood-opacity="0" result="BackgroundImageFix"/>
<feColorMatrix in="SourceAlpha" type="matrix" values="0 0 0 0 0 0 0 0 0 0 0 0 0 0 0 0 0 0 127 0" result="hardAlpha"/>
<feOffset dy="1.62794"/>
<feGaussianBlur stdDeviation="0.813968"/>
<feComposite in2="hardAlpha" operator="out"/>
<feColorMatrix type="matrix" values="0 0 0 0 0 0 0 0 0 0 0 0 0 0 0 0 0 0 0.2 0"/>
<feBlend mode="normal" in2="BackgroundImageFix" result="effect1_dropShadow_40_2"/>
<feBlend mode="normal" in="SourceGraphic" in2="effect1_dropShadow_40_2" result="shape"/>
</filter>
<radialGradient id="paint0_radial_40_2" cx="0" cy="0" r="1" gradientUnits="userSpaceOnUse" gradientTransform="translate(30 30) rotate(45) scale(42.4264)">
<stop stop-color="#314BD5"/>
<stop offset="0.3125" stop-color="#2451F0"/>
<stop offset="0.666667" stop-color="#3E6ADB"/>
<stop offset="1" stop-color="#3186D5"/>
</radialGradient>
</defs>
</svg>
