<svg width="60" height="60" viewBox="0 0 60 60" fill="none" xmlns="http://www.w3.org/2000/svg">
<rect width="60" height="60" rx="12" fill="url(#paint0_radial_238_70)"/>
<g filter="url(#filter0_d_238_70)">
<path d="M39.2104 50.4H18.6C17.9372 50.4 17.4 49.8627 17.4 49.2V32.5153C17.4 31.5059 18.5704 30.9475 19.355 31.5826L39.9655 48.2673C40.8444 48.9788 40.3413 50.4 39.2104 50.4Z" fill="white"/>
</g>
<g filter="url(#filter1_d_238_70)">
<path d="M19.3852 11.318L39.7591 28.9502C40.3095 29.4264 40.3125 30.279 39.7657 30.7592L19.3918 48.6507C18.6163 49.3317 17.4 48.7811 17.4 47.7491V12.2254C17.4 11.1974 18.608 10.6453 19.3852 11.318Z" fill="white"/>
</g>
<g filter="url(#filter2_d_238_70)">
<path d="M18.6 9.59985H38.9418C40.0691 9.59985 40.5743 11.0137 39.7023 11.7281L19.3605 28.3937C18.5771 29.0355 17.4 28.4781 17.4 27.4654V10.7999C17.4 10.1371 17.9372 9.59985 18.6 9.59985Z" fill="white"/>
</g>
<defs>
<filter id="filter0_d_238_70" x="17.4" y="31.3131" width="29.0128" height="25.0869" filterUnits="userSpaceOnUse" color-interpolation-filters="sRGB">
<feFlood flood-opacity="0" result="BackgroundImageFix"/>
<feColorMatrix in="SourceAlpha" type="matrix" values="0 0 0 0 0 0 0 0 0 0 0 0 0 0 0 0 0 0 127 0" result="hardAlpha"/>
<feOffset dx="3" dy="3"/>
<feGaussianBlur stdDeviation="1.5"/>
<feComposite in2="hardAlpha" operator="out"/>
<feColorMatrix type="matrix" values="0 0 0 0 0 0 0 0 0 0 0 0 0 0 0 0 0 0 0.2 0"/>
<feBlend mode="normal" in2="BackgroundImageFix" result="effect1_dropShadow_238_70"/>
<feBlend mode="normal" in="SourceGraphic" in2="effect1_dropShadow_238_70" result="shape"/>
</filter>
<filter id="filter1_d_238_70" x="14.4" y="11.0231" width="28.7739" height="43.9283" filterUnits="userSpaceOnUse" color-interpolation-filters="sRGB">
<feFlood flood-opacity="0" result="BackgroundImageFix"/>
<feColorMatrix in="SourceAlpha" type="matrix" values="0 0 0 0 0 0 0 0 0 0 0 0 0 0 0 0 0 0 127 0" result="hardAlpha"/>
<feOffset dy="3"/>
<feGaussianBlur stdDeviation="1.5"/>
<feComposite in2="hardAlpha" operator="out"/>
<feColorMatrix type="matrix" values="0 0 0 0 0 0 0 0 0 0 0 0 0 0 0 0 0 0 0.2 0"/>
<feBlend mode="normal" in2="BackgroundImageFix" result="effect1_dropShadow_238_70"/>
<feBlend mode="normal" in="SourceGraphic" in2="effect1_dropShadow_238_70" result="shape"/>
</filter>
<filter id="filter2_d_238_70" x="14.4" y="9.59985" width="28.7442" height="25.0679" filterUnits="userSpaceOnUse" color-interpolation-filters="sRGB">
<feFlood flood-opacity="0" result="BackgroundImageFix"/>
<feColorMatrix in="SourceAlpha" type="matrix" values="0 0 0 0 0 0 0 0 0 0 0 0 0 0 0 0 0 0 127 0" result="hardAlpha"/>
<feOffset dy="3"/>
<feGaussianBlur stdDeviation="1.5"/>
<feComposite in2="hardAlpha" operator="out"/>
<feColorMatrix type="matrix" values="0 0 0 0 0 0 0 0 0 0 0 0 0 0 0 0 0 0 0.2 0"/>
<feBlend mode="normal" in2="BackgroundImageFix" result="effect1_dropShadow_238_70"/>
<feBlend mode="normal" in="SourceGraphic" in2="effect1_dropShadow_238_70" result="shape"/>
</filter>
<radialGradient id="paint0_radial_238_70" cx="0" cy="0" r="1" gradientUnits="userSpaceOnUse" gradientTransform="translate(30 30) rotate(45) scale(42.4264)">
<stop stop-color="#314BD5"/>
<stop offset="0.3125" stop-color="#2451F0"/>
<stop offset="0.666667" stop-color="#3E6ADB"/>
<stop offset="1" stop-color="#3186D5"/>
</radialGradient>
</defs>
</svg>
