<svg width="388" height="388" viewBox="0 0 388 388" fill="none" xmlns="http://www.w3.org/2000/svg">
<rect width="388" height="388" fill="url(#paint0_radial_3_3)"/>
<g filter="url(#filter0_d_3_3)">
<path d="M253.561 325.92H120.28C115.994 325.92 112.52 322.446 112.52 318.16V210.266C112.52 203.738 120.089 200.127 125.162 204.234L258.443 312.129C264.127 316.73 260.874 325.92 253.561 325.92Z" fill="white"/>
</g>
<g filter="url(#filter1_d_3_3)">
<path d="M125.358 73.1896L257.109 187.211C260.668 190.291 260.688 195.804 257.151 198.91L125.4 314.608C120.386 319.012 112.52 315.451 112.52 308.777V79.0573C112.52 72.4102 120.332 68.8397 125.358 73.1896Z" fill="white"/>
</g>
<g filter="url(#filter2_d_3_3)">
<path d="M120.28 62.0791H251.823C259.114 62.0791 262.38 71.2217 256.741 75.8418L125.198 183.612C120.132 187.763 112.52 184.159 112.52 177.61V69.8391C112.52 65.5534 115.994 62.0791 120.28 62.0791Z" fill="white"/>
</g>
<defs>
<filter id="filter0_d_3_3" x="112.52" y="202.491" width="187.616" height="162.229" filterUnits="userSpaceOnUse" color-interpolation-filters="sRGB">
<feFlood flood-opacity="0" result="BackgroundImageFix"/>
<feColorMatrix in="SourceAlpha" type="matrix" values="0 0 0 0 0 0 0 0 0 0 0 0 0 0 0 0 0 0 127 0" result="hardAlpha"/>
<feOffset dx="19.4" dy="19.4"/>
<feGaussianBlur stdDeviation="9.7"/>
<feComposite in2="hardAlpha" operator="out"/>
<feColorMatrix type="matrix" values="0 0 0 0 0 0 0 0 0 0 0 0 0 0 0 0 0 0 0.2 0"/>
<feBlend mode="normal" in2="BackgroundImageFix" result="effect1_dropShadow_3_3"/>
<feBlend mode="normal" in="SourceGraphic" in2="effect1_dropShadow_3_3" result="shape"/>
</filter>
<filter id="filter1_d_3_3" x="93.1198" y="71.2823" width="186.071" height="284.07" filterUnits="userSpaceOnUse" color-interpolation-filters="sRGB">
<feFlood flood-opacity="0" result="BackgroundImageFix"/>
<feColorMatrix in="SourceAlpha" type="matrix" values="0 0 0 0 0 0 0 0 0 0 0 0 0 0 0 0 0 0 127 0" result="hardAlpha"/>
<feOffset dy="19.4"/>
<feGaussianBlur stdDeviation="9.7"/>
<feComposite in2="hardAlpha" operator="out"/>
<feColorMatrix type="matrix" values="0 0 0 0 0 0 0 0 0 0 0 0 0 0 0 0 0 0 0.2 0"/>
<feBlend mode="normal" in2="BackgroundImageFix" result="effect1_dropShadow_3_3"/>
<feBlend mode="normal" in="SourceGraphic" in2="effect1_dropShadow_3_3" result="shape"/>
</filter>
<filter id="filter2_d_3_3" x="93.1198" y="62.0791" width="185.879" height="162.105" filterUnits="userSpaceOnUse" color-interpolation-filters="sRGB">
<feFlood flood-opacity="0" result="BackgroundImageFix"/>
<feColorMatrix in="SourceAlpha" type="matrix" values="0 0 0 0 0 0 0 0 0 0 0 0 0 0 0 0 0 0 127 0" result="hardAlpha"/>
<feOffset dy="19.4"/>
<feGaussianBlur stdDeviation="9.7"/>
<feComposite in2="hardAlpha" operator="out"/>
<feColorMatrix type="matrix" values="0 0 0 0 0 0 0 0 0 0 0 0 0 0 0 0 0 0 0.2 0"/>
<feBlend mode="normal" in2="BackgroundImageFix" result="effect1_dropShadow_3_3"/>
<feBlend mode="normal" in="SourceGraphic" in2="effect1_dropShadow_3_3" result="shape"/>
</filter>
<radialGradient id="paint0_radial_3_3" cx="0" cy="0" r="1" gradientUnits="userSpaceOnUse" gradientTransform="translate(194 194) rotate(45) scale(274.357)">
<stop stop-color="#314BD5"/>
<stop offset="0.3125" stop-color="#2451F0"/>
<stop offset="0.666667" stop-color="#3E6ADB"/>
<stop offset="1" stop-color="#3186D5"/>
</radialGradient>
</defs>
</svg>
